<?xml version="1.0" encoding="UTF-8"?><svg id="katman_1" xmlns="http://www.w3.org/2000/svg" xmlns:xlink="http://www.w3.org/1999/xlink" viewBox="0 0 89.8 40"><defs><style>.cls-1{mask:url(#mask);}.cls-2{fill:#fff;}.cls-2,.cls-3,.cls-4{fill-rule:evenodd;}.cls-5{fill:none;}.cls-3{fill:url(#Adsız_degrade);}.cls-6{clip-path:url(#clippath);}</style><clipPath id="clippath"><rect class="cls-5" width="89.8" height="40"/></clipPath><mask id="mask" x="50.69" y=".12" width="38.91" height="39.79" maskUnits="userSpaceOnUse"><g id="mask0_1913_8155"><path class="cls-2" d="M50.69.12v7.09h2.47V2.64h33.97v34.75h-33.96v-4.64h-2.47v7.16h38.91V.12h-38.91Z"/></g></mask><linearGradient id="Adsız_degrade" x1="50.69" y1="20.98" x2="89.6" y2="20.98" gradientTransform="translate(0 41) scale(1 -1)" gradientUnits="userSpaceOnUse"><stop offset="0" stop-color="#4fe2c1"/><stop offset="1" stop-color="#234fda"/></linearGradient></defs><g class="cls-6"><path class="cls-4" d="M67.84,15.37c-.3-1.87-1.37-2.82-3.41-2.82h-5.88c-2.04,0-3.11.95-3.4,2.82-.03.22-.05.45-.06.68v11.13h3.67v-9.85c0-.76.27-1.06.98-1.06h3.49c.64,0,.98.3.98,1.06v9.85h3.67v-11.13c0-.21-.02-.46-.05-.68ZM49.8,27.18h3.67v-14.63h-3.67v14.63ZM43.05,7.27h-3.67v19.93h3.67v-10.92h3.53v-3.71h-3.53v-5.31ZM34.12,27.18h3.67V7.27h-3.67v19.92ZM9.18,17.32c0-.78-.41-1.06-.96-1.06h-3.49c-.69,0-1.04.33-1.04,1.04v6.17h4.52c.64,0,.98-.41.98-1.06v-5.09ZM12.8,15.59c.02.19.05.41.05.6v7.31c0,.78-.16,1.41-.48,1.95-.69,1.25-1.53,1.73-2.87,1.73H0V7.27h3.67v5.31h5.88c.24,0,.49.02.7.08,1.39.29,2.36,1.37,2.55,2.94ZM23.58,22.41c0,.77-.26,1.06-.98,1.06h-3.49c-.64,0-.98-.29-.98-1.06v-9.85h-3.67v11.13c0,.22.02.46.05.68.29,1.88,1.37,2.82,3.41,2.82h5.88c2.04,0,3.11-.95,3.4-2.82.03-.22.06-.46.06-.68v-11.13h-3.67v9.85h0ZM28.87,27.21h3.67v-14.63h-3.67v14.63Z"/><g class="cls-1"><path class="cls-3" d="M50.69.12v7.09h2.47V2.64h33.97v34.75h-33.96v-4.64h-2.47v7.16h38.91V.12h-38.91Z"/></g></g></svg>