<?xml version="1.0" encoding="UTF-8"?><svg id="Layer_1" xmlns="http://www.w3.org/2000/svg" viewBox="0 0 320.43 40"><defs><style>.cls-1{fill:#0e0e24;}</style></defs><g id="Layer_2"><g id="Layer_1-2"><path class="cls-1" d="M62.75,23.23c-.8-1.5-2.03-2.72-3.79-3.63-.16-.11-.16-.21,0-.32,2.88-1.66,4.33-4.27,4.33-7.9,0-4.06-1.23-7-3.68-8.7-2.4-1.82-6.09-2.67-10.95-2.67h-14.74c-.21,0-.48.05-.64.21-.16.16-.21.37-.21.64v38.29c-.05.43.27.8.69.85h15.38c4.38,0,7.96-.91,10.68-2.78s4.11-4.75,4.11-8.65c.05-2.08-.37-3.9-1.17-5.34"/><path class="cls-1" d="M25.37,20.03v-7.26c0-.48.16-.85.8-1.01l4.17-.75c.32-.05.59-.16.59-.75V.8c0-.43-.37-.8-.8-.8h-14.85c-2.99,0-5.66.64-7.9,1.76-2.3,1.17-4.17,2.88-5.45,5.07-1.28,2.19-1.92,4.7-1.92,7.58v11.21c0,2.83.64,5.34,1.92,7.53,1.28,2.19,3.15,3.95,5.45,5.07,2.3,1.17,4.91,1.76,7.9,1.76h14.85c.43,0,.8-.37.8-.8v-9.45c0-.64-.27-.69-.59-.75l-4.17-.75c-.64-.16-.8-.53-.8-1.01v-7.21Z"/><path class="cls-1" d="M307.18,14.15c-1.6,0-2.94.64-3.9,1.98,0,.05-.05.11-.11.05-.05-.05-.11-.11-.05-.16v-1.23c0-.27-.21-.43-.43-.43h-5.34c-.27,0-.43.21-.43.43h0v18.58c0,.27.21.43.43.43h5.34c.27,0,.43-.21.43-.43h0v-9.88c-.05-.75.27-1.5.8-1.98s1.23-.8,1.98-.91c.32-.05.64-.11.96-.05.43,0,.85.05,1.28.16.32.11.48.05.53-.27l.85-5.23c.05-.21-.05-.43-.21-.59-.53-.32-1.23-.48-2.14-.48M285.29,19.44c.64,0,1.23.16,1.76.48.48.37.8.85.96,1.44.11.27.16.48.16.75,0,.05-.05.16-.11.16h-5.39c-.16,0-.21-.05-.16-.21.05-.27.11-.53.21-.8.37-1.17,1.23-1.82,2.56-1.82M294.53,22.43c-.21-1.55-.75-2.99-1.6-4.33-.8-1.23-1.87-2.3-3.2-2.99-1.39-.75-2.88-1.12-4.43-1.07-2.08,0-3.85.53-5.34,1.6s-2.56,2.51-3.2,4.38c-.43,1.23-.59,2.51-.59,3.79,0,1.87.27,3.47.8,4.7.64,1.71,1.87,3.2,3.47,4.17,1.6,1.01,3.52,1.5,5.82,1.5,1.44,0,2.88-.27,4.22-.75,1.23-.48,2.35-1.23,3.26-2.19.11-.05.16-.16.16-.32,0-.11-.05-.21-.16-.32l-2.88-3.31c-.05-.11-.16-.16-.32-.16s-.27.05-.32.21c-.91,1.01-2.14,1.55-3.74,1.55-.75,0-1.55-.16-2.24-.48-.59-.27-1.01-.75-1.34-1.28-.16-.37-.27-.69-.37-1.12,0-.05,0-.11.05-.11h0c.05-.05.11-.05.16-.05h11.48c.27.05.48-.16.48-.37v-.05c0-1.01-.05-1.98-.16-2.99M266.65,27.4c-.53.96-1.28,1.5-2.3,1.5-1.07,0-1.87-.48-2.35-1.44-.43-.85-.69-1.92-.69-3.26s.27-2.51.75-3.36c.43-.85,1.34-1.39,2.3-1.34.96,0,1.71.43,2.24,1.34.48.8.69,1.92.69,3.36,0,1.34-.21,2.4-.64,3.2M267.29,7.96v7.85c0,.05,0,.11-.05.16-.05,0-.11,0-.16-.05-.91-1.17-2.3-1.76-4.11-1.76s-3.36.48-4.65,1.44c-1.28.96-2.24,2.3-2.78,3.79s-.8,3.15-.8,4.75c0,1.5.21,2.94.59,4.38.53,1.76,1.5,3.2,2.83,4.22,1.28,1.01,2.88,1.55,4.54,1.55,1.87,0,3.31-.69,4.33-2.08.05-.05.11-.05.16-.05s.05.05.05.11v1.23c0,.27.21.43.43.43h5.34c.27,0,.43-.21.43-.43h0V7.96c0-.27-.21-.43-.43-.43h-5.34c-.16-.05-.37.16-.37.43h0M246.62,33.91h5.34c.27,0,.43-.21.43-.43h0V7.96c0-.27-.21-.43-.43-.43h-5.34c-.27,0-.43.21-.43.43h0v25.53c0,.21.16.43.43.43h0M237.49,33.91h5.34c.27,0,.43-.21.43-.43h0V14.85c0-.27-.21-.43-.43-.43h-5.34c-.27,0-.43.21-.43.43h0v18.58c0,.27.16.48.43.48h0M240.21,12.66c.91.05,1.76-.32,2.35-.96.59-.64.96-1.44.91-2.35,0-.96-.32-1.76-.91-2.35-1.34-1.23-3.36-1.23-4.7,0-.64.59-.91,1.39-.91,2.35-.05,1.76,1.28,3.2,3.04,3.26.05.05.11.05.21.05M227.93,14.85v11.64c-.05.64-.37,1.23-.85,1.71-.48.43-1.12.64-1.76.64-.8,0-1.39-.27-1.87-.8-.43-.53-.69-1.23-.69-2.14v-11.05c0-.27-.21-.43-.43-.43h-5.34c-.27,0-.43.21-.48.43h0v12.5c0,2.19.59,3.85,1.76,5.07,1.17,1.23,2.72,1.82,4.65,1.82,2.14,0,3.74-.69,4.75-2.14.05-.05.11-.11.16-.05.05.05.11.11.05.16v1.34c0,.27.21.43.43.43h5.34c.27,0,.43-.21.43-.43h0V14.85c0-.27-.21-.43-.43-.43h-5.34c-.16-.05-.37.16-.37.43h0M204.59,28.52h-4.06c-.11,0-.16-.05-.21-.16v-5.07c0-.11.05-.16.16-.21h4.11c1.01,0,1.82.21,2.35.69.53.48.8,1.12.8,1.98s-.27,1.55-.85,2.03c-.48.48-1.28.75-2.3.75M200.59,12.87h3.74c1.01,0,1.82.21,2.35.69.53.43.85,1.07.85,1.92,0,.8-.27,1.44-.85,1.87-.53.43-1.34.64-2.35.64h-3.74c-.11,0-.16-.05-.21-.16v-4.81c0-.11.05-.16.21-.16q-.05,0,0,0M210.57,20.19c2.03-1.07,2.99-2.83,3.04-5.34,0-2.62-.8-4.49-2.35-5.61-1.55-1.17-3.9-1.76-6.94-1.76h-9.72c-.27,0-.43.21-.43.43h0v25.53c0,.27.21.43.43.43h10.04c2.83,0,5.07-.64,6.84-1.87,1.71-1.23,2.62-3.1,2.62-5.61,0-2.83-1.12-4.81-3.42-6.03-.21-.05-.21-.11-.11-.16M189.91,14.15c-1.6,0-2.94.64-3.9,1.98,0,.05-.05.11-.11.05s-.11-.11-.05-.16v-1.23c0-.27-.21-.43-.43-.43h-5.34c-.27,0-.43.21-.43.43h0v18.58c0,.27.21.43.43.43h5.34c.27,0,.43-.21.43-.43h0v-9.88c-.05-.75.27-1.5.8-1.98s1.23-.8,1.98-.91c.32-.05.64-.11.96-.05.43,0,.85.05,1.28.16.32.11.48.05.53-.27l.85-5.23c.05-.21-.05-.43-.21-.59-.53-.32-1.23-.48-2.14-.48M167.96,19.44c.64,0,1.23.16,1.76.48.48.37.8.85.96,1.44.11.27.16.48.16.75,0,.05-.05.16-.11.16h-5.39c-.16,0-.21-.05-.16-.21.05-.27.11-.53.21-.8.37-1.17,1.28-1.82,2.56-1.82M177.2,22.43c-.21-1.55-.75-2.99-1.6-4.33-.8-1.23-1.87-2.3-3.2-2.99-1.39-.75-2.88-1.12-4.43-1.07-2.08,0-3.85.53-5.34,1.6s-2.56,2.51-3.2,4.38c-.43,1.23-.59,2.51-.59,3.79,0,1.87.27,3.47.8,4.7.64,1.71,1.87,3.2,3.47,4.17,1.6,1.01,3.52,1.5,5.82,1.5,1.44,0,2.88-.27,4.22-.75,1.23-.48,2.35-1.23,3.26-2.19.11-.05.16-.16.16-.32,0-.11-.05-.21-.16-.32l-2.88-3.31c-.05-.11-.16-.16-.32-.16s-.27.05-.32.21c-.91,1.01-2.14,1.55-3.74,1.55-.75,0-1.55-.16-2.24-.48-.59-.27-1.01-.75-1.34-1.28-.16-.37-.27-.69-.37-1.12,0-.05,0-.11.05-.11h0c.05-.05.11-.05.16-.05h11.48c.27.05.48-.16.48-.37v-.05c0-1.01,0-2.03-.16-2.99M147.61,19.44c.64,0,1.23.16,1.76.48.48.37.8.85.96,1.44.11.27.16.48.16.75,0,.05-.05.16-.11.16h-5.39c-.16,0-.21-.05-.16-.21.05-.27.11-.53.21-.8.37-1.17,1.23-1.82,2.56-1.82M156.85,22.43c-.21-1.55-.75-2.99-1.6-4.33-.8-1.23-1.87-2.3-3.2-2.99-1.39-.75-2.88-1.12-4.43-1.07-2.08,0-3.85.53-5.34,1.6s-2.56,2.51-3.2,4.38c-.43,1.23-.59,2.51-.59,3.79,0,1.87.27,3.47.8,4.7.64,1.71,1.87,3.2,3.47,4.17,1.6,1.01,3.52,1.5,5.82,1.5,1.44,0,2.88-.27,4.22-.75,1.23-.48,2.35-1.23,3.26-2.19.11-.05.16-.16.16-.32,0-.11-.05-.21-.16-.32l-2.94-3.31c-.05-.11-.16-.16-.32-.16s-.27.05-.32.21c-.91,1.01-2.14,1.55-3.74,1.55-.75,0-1.55-.16-2.24-.48-.59-.27-1.01-.75-1.34-1.28-.16-.37-.27-.69-.37-1.12,0-.05,0-.11.05-.11h0c.05-.05.11-.05.16-.05h11.48c.27.05.48-.16.48-.37v-.05c.05-1.01,0-2.03-.11-2.99M135.38,14.1c-1.6,0-2.94.64-3.9,1.98,0,.05-.05.11-.11.05-.05-.05-.11-.11-.05-.16v-1.17c0-.27-.21-.43-.43-.43h-5.34c-.27,0-.43.21-.43.43h0v18.58c0,.27.21.43.43.43h5.34c.27,0,.43-.21.43-.43h0v-9.88c0-.85.27-1.5.8-1.98s1.23-.8,1.98-.91c.32-.05.64-.11.96-.05.43,0,.85.05,1.28.16.32.11.48.05.53-.27l.85-5.23c.05-.21-.05-.43-.21-.59-.48-.32-1.23-.48-2.14-.53M112.79,29.69c-.69,0-1.23-.16-1.6-.48-.37-.32-.59-.8-.59-1.34-.05-.59.27-1.17.75-1.5.53-.32,1.23-.48,2.19-.48h2.24c.11,0,.16.05.21.16v.96c0,.75-.32,1.5-.91,1.92-.59.53-1.39.75-2.3.75M113.38,14.1c-1.5,0-2.94.27-4.33.75-1.28.53-2.3,1.23-3.1,2.14-.75.85-1.17,1.87-1.28,2.99,0,.16.16.27.43.32l5.45.69c.21,0,.43-.11.53-.37.16-.37.48-.69.85-.85.48-.21,1.01-.37,1.55-.32.8,0,1.44.21,1.87.59.48.43.69,1.01.69,1.6v.69c0,.11-.05.16-.16.21h-3.68c-2.56,0-4.54.53-5.87,1.6s-2.03,2.56-2.03,4.49c0,1.82.59,3.2,1.82,4.17,1.17.96,2.78,1.39,4.81,1.39,2.3,0,3.95-.69,4.91-2.14.05-.11.11-.16.16-.11.05,0,.05.05.05.16v1.34c0,.11.05.21.11.32.11.11.21.16.32.11h5.34c.27,0,.43-.21.43-.43h0v-12.87c0-1.23-.43-2.35-1.17-3.31-.8-1.01-1.87-1.76-3.2-2.35-1.39-.53-2.94-.85-4.49-.8M92.6,34.18c2.03,0,3.79-.37,5.29-1.12,1.44-.69,2.67-1.76,3.52-3.15.85-1.34,1.28-2.94,1.28-4.7,0-.11-.05-.21-.11-.27-.11-.05-.21-.11-.32-.11l-5.34-.27c-.32,0-.43.16-.43.43,0,1.17-.37,2.08-1.07,2.78s-1.66,1.07-2.78,1.07-2.08-.37-2.78-1.07-1.07-1.66-1.07-2.78v-8.54c0-1.17.37-2.08,1.07-2.83.69-.69,1.66-1.07,2.78-1.07s2.08.37,2.78,1.07,1.07,1.66,1.07,2.83c0,.27.16.43.43.43l5.34-.32c.11,0,.21-.05.32-.11.11-.05.16-.16.11-.32,0-1.76-.43-3.31-1.28-4.65-.85-1.34-2.08-2.46-3.52-3.1-1.55-.75-3.31-1.12-5.29-1.12s-3.79.37-5.29,1.17c-1.5.75-2.72,1.87-3.52,3.31-.85,1.44-1.28,3.04-1.28,4.91v8.17c0,1.87.43,3.52,1.28,4.97.85,1.44,2.08,2.56,3.52,3.31,1.5.69,3.31,1.07,5.29,1.07"/><path class="cls-1" d="M317.65,2.35c.85.48,1.55,1.12,2.03,1.98.48.85.75,1.82.75,2.78,0,1.01-.21,2.03-.75,2.88-.48.85-1.17,1.55-2.03,2.03s-1.87.75-2.88.75-1.98-.27-2.83-.75-1.55-1.17-2.03-2.03c-.48-.91-.75-1.87-.75-2.88,0-.96.21-1.92.75-2.78.48-.8,1.17-1.5,2.03-1.98.85-.48,1.87-.75,2.83-.69,1.01-.05,2.03.21,2.88.69ZM317.65,9.99c.75-.75,1.17-1.82,1.12-2.88,0-1.39-.75-2.67-1.98-3.36-1.28-.69-2.78-.69-4.01,0-.59.32-1.07.8-1.44,1.39-.32.59-.53,1.28-.53,1.98,0,1.17.37,2.14,1.12,2.88,1.66,1.5,4.11,1.5,5.71,0h0ZM316.1,7.53c-.05,0-.11.05-.05.16l.59,1.6c0,.05.05.11.05.16,0,.16-.11.27-.32.27h-.69c-.16,0-.32-.11-.37-.27l-.53-1.55c-.05-.05-.11-.11-.16-.11h-.05c-.05,0-.11.05-.16.11v1.5c0,.16-.16.32-.32.32h-.59c-.16,0-.32-.16-.32-.32h0v-4.49c0-.16.16-.32.32-.32h1.6c.43,0,.85.16,1.17.48.32.32.48.75.48,1.17,0,.59-.21,1.01-.64,1.28h0ZM314.45,5.82v.8c0,.05.05.11.11.16h.43c.16,0,.32-.05.37-.16.11-.11.16-.27.16-.37,0-.27-.21-.53-.48-.53h-.43c-.11-.05-.16,0-.16.11h0Z"/></g></g></svg>