<?xml version="1.0" encoding="UTF-8"?><svg id="katman_1" xmlns="http://www.w3.org/2000/svg" viewBox="0 0 203.75 40"><defs><style>.cls-1{fill:#00a264;fill-rule:evenodd;}</style></defs><path class="cls-1" d="M195.94,13.81h7.71c.06,0,.11-.05.11-.11v-7.6c0-1.86-.62-3.37-1.86-4.42-1.14-.97-2.86-1.56-5.16-1.67-.06,0-.11.05-.11.11v2.87c0,.06.04.1.1.11,2.02.14,3.55.79,3.55,3.06h-4.33c-.06,0-.11.05-.11.12v7.45c0,.06.05.11.11.11M29.24,19.96h-9.35c-.15,0-.24.13-.24.26v5.02c0,.16.12.26.24.26h3.32v4.04c0,3.01-.73,4.62-3.32,4.62-2.16,0-3.69-1.31-3.69-5.38v-11.73c0-3.9,1.16-5.73,3.73-5.73,2.32,0,3.27,1.42,3.27,4.09v1.51c0,.16.12.26.24.26h5.75c.15,0,.24-.13.24-.26v-1.77c.05-6.31-3.31-9.65-9.38-9.65s-10.04,3.61-10.04,11.21v12.56c0,7.48,4.61,10.73,9.73,10.73,5.73,0,9.73-2.26,9.73-10.62v-9.16c0-.13-.09-.25-.23-.26h-.01.01,0ZM47.13,33.34h-8.99V6.38c0-.16-.12-.26-.24-.26h-5.65c-.15,0-.24.13-.24.26v32.75c0,.16.12.26.24.26h14.87c.15,0,.24-.13.24-.26v-5.52c0-.16-.12-.26-.24-.26h.01ZM131.56,16.78c0-7.55,3.88-11.23,9.81-11.23s9.79,3.7,9.76,11.23v11.97c0,7.65-3.64,11.18-9.76,11.18s-9.81-3.45-9.81-11.18v-11.97ZM141.37,34.19c2.48,0,3.51-1.81,3.51-5.67v-11.46c0-3.85-1-5.72-3.51-5.72s-3.51,1.94-3.51,5.72v11.46c0,3.87,1.03,5.67,3.51,5.67M163.33,5.55c-5.93,0-9.81,3.68-9.81,11.23v11.97c0,7.73,3.69,11.18,9.81,11.18s9.76-3.52,9.76-11.18v-11.97c.03-7.54-3.91-11.23-9.76-11.23M166.84,28.52c0,3.85-1.03,5.67-3.51,5.67s-3.51-1.8-3.51-5.67v-11.46c0-3.78,1-5.72,3.51-5.72s3.51,1.87,3.51,5.72v11.46ZM110.85,6.11h8.48v.03c5.73,0,10.05,3.15,10.05,10.92v11.41c0,7.7-4.21,10.92-10.12,10.92h-8.41c-.12,0-.24-.1-.24-.26V6.4c0-.14.09-.29.24-.29M118.99,33.33c2.56,0,4.16-1.76,4.16-5.85h.01s0-9.98,0-9.98c0-4.14-1.68-5.81-4.23-5.81h-2.33v21.65h2.39ZM79.94,5.49h-.09c-5.84,0-8.92,3.6-8.92,8.99s3.63,8.23,6.62,10.38l.58.42.69.5h0s0,0,0,0c2.11,1.53,3.74,2.71,3.74,5.3,0,2.17-1.33,3.04-2.88,3.08-1.71.04-2.95-1.37-2.95-3.14v-2.86c0-.18-.14-.33-.32-.33,0,0,0,0,0,0h-5.47c-.19,0-.32.14-.32.33v2.9c0,5.74,3.23,8.92,8.91,8.92s9.12-3.25,9.12-8.96-3.52-8.52-6.59-10.76l-.1-.07c-.34-.25-.67-.49-1.01-.73-2.1-1.49-4.05-2.88-4.05-5.04s1.36-3.15,2.93-3.15c1.69,0,2.89,1.31,2.89,3.04v2.53c0,.19.15.33.32.33h5.47c.19,0,.32-.14.32-.33v-2.46c.01-5.64-3.39-8.88-8.89-8.9M99.57,5.49h.09c5.51.03,8.89,3.27,8.89,8.9v2.46c0,.19-.13.33-.32.33h-5.47c-.18,0-.32-.15-.32-.33,0,0,0,0,0,0v-2.53c0-1.73-1.2-3.04-2.89-3.04-1.57,0-2.93,1.01-2.93,3.15s1.95,3.55,4.05,5.04c.34.24.67.48,1.01.73l.1.07c3.07,2.24,6.59,4.81,6.59,10.76s-3.44,8.96-9.12,8.96-8.91-3.18-8.91-8.92v-2.91c0-.19.13-.33.32-.33h5.47c.17,0,.32.14.32.33v2.86c0,1.77,1.24,3.18,2.95,3.14,1.55-.04,2.88-.91,2.88-3.08,0-2.6-1.63-3.77-3.74-5.3-.23-.16-.46-.33-.7-.51l-.57-.41h0c-2.99-2.16-6.62-4.77-6.62-10.39s3.08-8.99,8.92-8.99M193.75,16.35v-2.75c0-4.19-3.23-7.48-6.93-7.48h-11.01c-.13,0-.24.12-.24.26v32.72c0,.14.11.26.24.26h5.39c.15,0,.24-.13.24-.26v-13.62h2.64c2.45,0,3.23.98,3.23,3.47v10.13c0,.16.12.26.24.26h5.56c.14,0,.25-.12.25-.26v-9.94c0-3.4-.87-5.57-3.08-6.46,2.23-.98,3.48-2.93,3.48-6.33M187.73,17.51c0,1.37-1.01,2.46-2.27,2.46h-4.09v-8.31h4.09c1.25,0,2.27,1.09,2.27,2.45v3.41M56.82,6.13h5.73c.11,0,.21.08.24.22l7.44,32.68c.07.19-.07.36-.24.36h-5.49c-.09,0-.21-.09-.24-.22l-1.17-5.85h-6.85l-1.17,5.85c-.02.12-.12.21-.24.22h-5.49c-.16,0-.28-.17-.24-.36l7.49-32.68c.01-.12.12-.22.24-.22M59.6,16.51l-2.27,11.31h4.58l-2.27-11.31-.03.16-.03-.16ZM7.81,6.12H.11c-.06,0-.11.05-.11.11v7.45c0,.06.05.11.11.11h4.33c0,2.27-1.53,2.92-3.55,3.06-.06,0-.1.05-.1.11v2.87c0,.06.05.11.11.11,2.3-.12,4.02-.7,5.16-1.67,1.24-1.06,1.86-2.57,1.86-4.42v-7.6c0-.06-.05-.11-.11-.11"/></svg>