<?xml version="1.0" encoding="UTF-8"?><svg id="Layer_1" xmlns="http://www.w3.org/2000/svg" viewBox="0 0 178.42 40"><defs><style>.cls-1{fill:#23a47f;}</style></defs><path class="cls-1" d="M15.09,14.55c0,1.75-.74,3.29-1.95,4.5-1.34,1.34-3.29,1.68-3.29,2.82,0,1.55,2.49,1.08,4.87,3.46,1.58,1.58,2.55,3.66,2.55,6.08,0,4.77-3.83,8.57-8.64,8.57S0,36.21,0,31.43c0-2.42.97-4.5,2.55-6.08,2.39-2.39,4.87-1.92,4.87-3.46,0-1.14-1.95-1.48-3.29-2.82-1.21-1.21-1.95-2.76-1.95-4.57,0-3.5,2.86-6.32,6.35-6.32.67,0,1.28.1,1.78.1.91,0,1.38-.4,1.38-1.04,0-.37-.17-.84-.17-1.34,0-1.14.97-2.08,2.15-2.08s2.12.97,2.12,2.15c0,1.24-.97,1.82-1.71,2.08-.61.2-1.08.47-1.08,1.08,0,1.14,2.08,2.25,2.08,5.44ZM14.42,31.43c0-3.33-2.45-6.02-5.78-6.02s-5.78,2.69-5.78,6.02,2.45,6.02,5.78,6.02,5.78-2.73,5.78-6.02ZM12.44,14.49c0-2.12-1.71-3.87-3.8-3.87s-3.8,1.75-3.8,3.87,1.71,3.87,3.8,3.87,3.8-1.75,3.8-3.87Z"/><path class="cls-1" d="M27.19,8.5c1.08,0,1.88.81,1.88,1.82s-.77,1.82-1.85,1.82-1.71-.71-2.82-.71-1.92.77-1.92,2.08v10.59c0,.81-.64,1.45-1.45,1.45s-1.41-.64-1.41-1.45v-14.25c0-.81.64-1.45,1.41-1.45,1.45,0,1.18,1.38,2.62,1.38s1.88-1.28,3.53-1.28Z"/><path class="cls-1" d="M30.32,16.97c0-5.08,3.5-8.74,8.3-8.74,4.4,0,7.9,3.23,7.9,7.63,0,1.04-.67,1.75-1.65,1.75h-10.92c-.47,0-.64.17-.64.54,0,.84.67,2.39,1.68,3.39s2.39,1.61,4.34,1.61c1.45,0,2.72-.54,3.7-1.24.3-.24.64-.37.97-.37.71,0,1.28.64,1.28,1.31,0,.4-.13.74-.47,1.04-1.41,1.18-3.39,1.82-5.55,1.82-5.21,0-8.94-3.76-8.94-8.74ZM42.22,12.13c-.94-.94-2.15-1.41-3.6-1.41s-2.79.57-3.76,1.55c-.77.77-1.31,1.78-1.31,2.45,0,.34.2.47.64.47h8.74c.4,0,.61-.13.61-.47,0-.81-.64-1.92-1.31-2.59Z"/><path class="cls-1" d="M49.41,16.97c0-5.08,3.5-8.74,8.3-8.74,4.4,0,7.9,3.23,7.9,7.63,0,1.04-.67,1.75-1.65,1.75h-10.92c-.47,0-.64.17-.64.54,0,.84.67,2.39,1.68,3.39s2.39,1.61,4.34,1.61c1.45,0,2.72-.54,3.7-1.24.3-.24.64-.37.97-.37.71,0,1.28.64,1.28,1.31,0,.4-.13.74-.47,1.04-1.41,1.18-3.39,1.82-5.55,1.82-5.21,0-8.94-3.76-8.94-8.74ZM61.31,12.13c-.94-.94-2.15-1.41-3.6-1.41s-2.79.57-3.76,1.55c-.77.77-1.31,1.78-1.31,2.45,0,.34.2.47.64.47h8.74c.4,0,.61-.13.61-.47,0-.81-.64-1.92-1.31-2.59Z"/><path class="cls-1" d="M82.45,25.55c-.81,0-1.45-.64-1.45-1.45v-9.14c0-2.39-1.88-4.2-4.3-4.2s-4.34,1.85-4.34,4.2v9.14c0,.81-.64,1.45-1.45,1.45s-1.41-.64-1.41-1.45v-14.29c0-.77.64-1.41,1.38-1.41,1.41,0,1.34,1.28,2.08,1.28s1.75-1.45,4.37-1.45c3.66,0,6.52,3.06,6.52,6.72v9.14c0,.81-.64,1.45-1.41,1.45Z"/><path class="cls-1" d="M101.75,25.55c-.81,0-1.45-.64-1.45-1.45v-9.14c0-2.39-1.88-4.2-4.3-4.2s-4.34,1.85-4.34,4.2v9.14c0,.81-.64,1.45-1.45,1.45s-1.41-.64-1.41-1.45V1.45c0-.81.64-1.45,1.41-1.45s1.45.64,1.45,1.45v7.43c0,.4.17.64.61.64.74,0,1.75-1.28,4.37-1.28,3.66,0,6.52,3.06,6.52,6.72v9.14c0,.81-.64,1.45-1.41,1.45Z"/><path class="cls-1" d="M107.09,16.97c0-4.87,3.9-8.74,8.81-8.74s8.81,3.87,8.81,8.74-3.9,8.74-8.81,8.74-8.81-3.87-8.81-8.74ZM121.85,16.97c0-3.39-2.52-6.18-5.95-6.18s-5.92,2.79-5.92,6.18,2.52,6.18,5.92,6.18,5.95-2.79,5.95-6.18Z"/><path class="cls-1" d="M130.05,8.4c.81,0,1.45.64,1.45,1.45v9.14c0,2.39,1.88,4.2,4.3,4.2s4.34-1.85,4.34-4.2v-9.14c0-.81.64-1.45,1.45-1.45s1.41.64,1.41,1.45v14.29c0,.77-.64,1.41-1.38,1.41-1.41,0-1.34-1.28-2.08-1.28s-1.75,1.45-4.37,1.45c-3.66,0-6.52-3.06-6.52-6.72v-9.14c0-.81.64-1.45,1.41-1.45Z"/><path class="cls-1" d="M148.06,24.47c-.64-.4-1.08-.81-1.08-1.58s.57-1.31,1.28-1.31c.84,0,1.21.5,1.92.87.87.5,1.88.77,3.13.77,2.29,0,3.43-1.04,3.43-2.32,0-1.82-1.68-2.15-3.97-2.76-2.82-.74-5.55-1.58-5.55-4.84,0-2.89,2.22-5.08,6.15-5.08,1.55,0,2.99.4,4.13,1.11.4.24.81.74.81,1.31,0,.74-.61,1.38-1.38,1.38-.5,0-.91-.34-1.41-.67s-1.24-.64-2.25-.64c-2.25,0-3.23.97-3.23,2.29,0,1.71,1.65,2.12,4,2.69,2.76.67,5.48,1.55,5.48,4.87,0,2.89-2.15,5.14-6.29,5.14-2.02,0-3.83-.4-5.18-1.24Z"/><path class="cls-1" d="M162.22,16.97c0-5.08,3.5-8.74,8.3-8.74,4.4,0,7.9,3.23,7.9,7.63,0,1.04-.67,1.75-1.65,1.75h-10.92c-.47,0-.64.17-.64.54,0,.84.67,2.39,1.68,3.39s2.39,1.61,4.34,1.61c1.45,0,2.72-.54,3.7-1.24.3-.24.64-.37.97-.37.71,0,1.28.64,1.28,1.31,0,.4-.13.74-.47,1.04-1.41,1.18-3.39,1.82-5.55,1.82-5.21,0-8.94-3.76-8.94-8.74ZM174.12,12.13c-.94-.94-2.15-1.41-3.6-1.41s-2.79.57-3.76,1.55c-.77.77-1.31,1.78-1.31,2.45,0,.34.2.47.64.47h8.74c.4,0,.61-.13.61-.47,0-.81-.64-1.92-1.31-2.59Z"/></svg>