<?xml version="1.0" encoding="UTF-8"?><svg id="Layer_1" xmlns="http://www.w3.org/2000/svg" viewBox="0 0 135.4 40"><defs><style>.cls-1{fill:#0c0c0c;}.cls-2{fill:#6e5aea;}</style></defs><g id="Layer_2"><g id="Layer_1-2"><path class="cls-1" d="M18.63,32.84v-12.84h-10.45v12.84H0V.84h8.18v12h10.45V.84h8.18v32h-8.18Z"/><path class="cls-1" d="M41.01,32.84V8.84h6.75v2.57h.06c1.25-2.57,3.22-3.4,6.03-3.4v7.22c-4.3.06-5.67,1.67-5.67,4.36v13.25h-7.16Z"/><path class="cls-1" d="M61.67,22.99c.42,2.75,2.69,4.54,5.61,4.54,1.97,0,3.22-.72,4.36-2.27h7.34c-2.27,5.25-6.69,8.3-11.7,8.3-7.04,0-12.72-5.67-12.72-12.72h0c0-6.93,5.55-12.9,12.6-12.9s12.66,5.67,12.66,13.07c0,.66-.06,1.25-.18,1.91l-17.97.06ZM72.66,18.15c-.54-2.45-2.75-4.12-5.49-4.12s-4.84,1.55-5.37,4.12h10.87Z"/><path class="cls-1" d="M100.9,32.84v-2.63h-.06c-1.31,2.21-3.76,3.4-7.16,3.4-7.28,0-12-5.55-12-12.84s4.9-12.78,11.88-12.78c2.75,0,5.01.84,7.04,2.87V.84h7.16v32h-6.87ZM100.96,20.72c0-3.34-2.57-6.03-6.09-6.03s-6.03,2.51-6.03,6.03,2.57,6.21,6.03,6.21,6.09-2.69,6.09-6.21Z"/><path class="cls-1" d="M30.21,32.84V8.84h7.16v24h-7.16Z"/><circle class="cls-1" cx="33.79" cy="3.58" r="3.58"/><path class="cls-2" d="M135.4,40h-24v-7.16h24v7.16Z"/></g></g></svg>