<?xml version="1.0" encoding="UTF-8"?><svg id="svg2" xmlns="http://www.w3.org/2000/svg" viewBox="0 0 149.52 40"><defs><style>.cls-1{fill:#003a9b;}</style></defs><g id="g10"><g id="g12"><path id="path14" class="cls-1" d="M148.75,6.92c-.53-.6-1.24-.9-2.19-.9s-1.68.32-2.2.97c-.51.63-.77,1.59-.77,2.84v9.05c-1.18-1.27-2.4-2.18-3.63-2.8-.78-.38-1.69-.65-2.7-.79-.59-.08-1.2-.12-1.87-.12-3.11,0-5.63,1.07-7.56,3.21-1.91,2.14-2.86,5.12-2.86,8.95,0,1.81.24,3.49.73,5.04.49,1.55,1.18,2.89,2.11,4.05.93,1.15,2.05,2.02,3.33,2.66,1.28.61,2.66.93,4.16.93.69,0,1.34-.06,1.95-.18.41-.06.79-.16,1.18-.28.95-.32,1.85-.77,2.66-1.35.83-.6,1.67-1.37,2.5-2.3v.6c0,1.13.28,1.98.83,2.6.57.6,1.28.91,2.13.91s1.58-.29,2.13-.87c.55-.6.83-1.47.83-2.64V9.51c0-1.13-.27-2-.77-2.6M142.43,31.87c-.55,1.15-1.28,2-2.17,2.56-.92.56-1.91.83-3.01.83h-.02c-1.1,0-2.09-.3-3.01-.87-.91-.59-1.65-1.47-2.17-2.62-.53-1.17-.79-2.58-.79-4.25,0-1.57.24-2.96.75-4.13.49-1.19,1.2-2.1,2.09-2.74.91-.66,1.93-.95,3.09-.95h.06c1.08,0,2.07.32,2.99.93.91.61,1.64,1.51,2.19,2.68.55,1.17.81,2.58.81,4.21,0,1.74-.26,3.19-.81,4.35"/><path id="path16" class="cls-1" d="M123.03,32.13c-.38-.34-.91-.52-1.56-.52-.59,0-1.04.14-1.36.4-.79.71-1.42,1.29-1.91,1.71-.49.4-1.04.79-1.63,1.17-.57.36-1.18.64-1.78.8-.63.18-1.3.26-2.05.26-.16,0-.33,0-.47-.02-.93-.06-1.81-.32-2.6-.79-.94-.54-1.67-1.33-2.24-2.36-.55-1.07-.83-2.3-.85-3.69h12.25c1.64,0,2.92-.24,3.82-.68.91-.48,1.36-1.47,1.36-2.99,0-1.67-.45-3.29-1.32-4.9-.87-1.59-2.17-2.9-3.94-3.91-1.75-1.01-3.84-1.51-6.3-1.51h-.18c-1.81.02-3.48.32-4.96.87-1.54.6-2.84,1.45-3.92,2.54-1.03,1.11-1.85,2.44-2.39,3.99-.55,1.55-.83,3.23-.83,5.04,0,3.85,1.12,6.86,3.35,9.11,2.11,2.12,5.04,3.23,8.75,3.35.2.02.42.02.65.02,1.75,0,3.31-.22,4.67-.67,1.36-.46,2.48-1.01,3.38-1.69.89-.69,1.56-1.41,2-2.14.45-.73.67-1.39.67-1.92,0-.61-.2-1.11-.61-1.45M108.4,20.92c.99-1.05,2.27-1.57,3.84-1.57h.02c1.62,0,2.95.52,3.94,1.55,1,1.03,1.58,2.6,1.73,4.7h-11.36c.2-2.06.81-3.63,1.83-4.68"/><path id="path18" class="cls-1" d="M96.4,31.61c-.61,0-1.06.14-1.38.4-.77.71-1.42,1.29-1.91,1.71-.49.4-1.01.79-1.6,1.17-.59.36-1.18.64-1.81.8-.61.18-1.3.26-2.05.26-.16,0-.32,0-.47-.02-.94-.06-1.81-.32-2.6-.79-.91-.54-1.67-1.33-2.21-2.36-.57-1.07-.86-2.3-.88-3.69h12.27c1.63,0,2.91-.24,3.82-.68.9-.48,1.34-1.47,1.34-2.99,0-1.67-.43-3.29-1.3-4.9-.87-1.59-2.19-2.9-3.94-3.91-1.75-1.01-3.86-1.51-6.3-1.51h-.2c-1.81.02-3.46.32-4.96.87-1.55.6-2.85,1.45-3.9,2.54-1.06,1.11-1.87,2.44-2.42,3.99-.55,1.55-.83,3.23-.83,5.04,0,3.85,1.14,6.86,3.37,9.11,2.11,2.12,5.02,3.23,8.73,3.35.22.02.42.02.65.02,1.77,0,3.31-.22,4.67-.67,1.36-.46,2.48-1.01,3.37-1.69.91-.69,1.56-1.41,2.01-2.14.45-.73.67-1.39.67-1.92,0-.61-.2-1.11-.59-1.45-.41-.34-.94-.52-1.57-.52M83.32,20.92c.99-1.05,2.27-1.57,3.84-1.57h.02c1.62,0,2.94.52,3.94,1.55,1.01,1.03,1.58,2.6,1.75,4.7h-11.38c.22-2.06.83-3.63,1.83-4.68"/><path id="path20" class="cls-1" d="M13.05,35.94v-14.6c.43.04.83.06,1.26.06,2.03,0,3.94-.54,5.57-1.49v16.03c0,1.37-.33,2.38-.95,3.06-.63.67-1.46,1.01-2.48,1.01s-1.79-.34-2.44-1.03c-.63-.67-.95-1.69-.95-3.04"/><path id="path22" class="cls-1" d="M72.06,6.92c-.53-.6-1.26-.9-2.17-.9s-1.69.32-2.19.97c-.52.63-.77,1.59-.77,2.84v9.05c-1.18-1.27-2.4-2.18-3.64-2.8-.79-.38-1.69-.65-2.7-.79-.59-.08-1.2-.12-1.87-.12-3.11,0-5.65,1.07-7.56,3.21-1.91,2.14-2.87,5.12-2.87,8.95,0,1.81.25,3.49.71,5.04.49,1.55,1.2,2.89,2.14,4.05.93,1.15,2.05,2.02,3.33,2.66,1.28.61,2.66.93,4.16.93.67,0,1.32-.06,1.95-.18.41-.06.79-.16,1.18-.28.95-.32,1.85-.77,2.66-1.35.83-.6,1.65-1.37,2.5-2.3v.6c0,1.13.29,1.98.83,2.6.55.6,1.28.91,2.13.91s1.56-.29,2.12-.87c.55-.6.81-1.47.81-2.64V9.51c0-1.13-.24-2-.75-2.6M65.76,31.87c-.55,1.15-1.28,2-2.19,2.56-.9.56-1.91.83-2.99.83h-.02c-1.09,0-2.09-.3-3.01-.87-.93-.59-1.65-1.47-2.17-2.62-.53-1.17-.79-2.58-.79-4.25,0-1.57.25-2.96.73-4.13.51-1.19,1.2-2.1,2.11-2.74.9-.66,1.93-.95,3.07-.95h.08c1.08,0,2.07.32,2.96.93.93.61,1.67,1.51,2.21,2.68.53,1.17.81,2.58.81,4.21,0,1.74-.29,3.19-.81,4.35"/><path id="path24" class="cls-1" d="M29.89,18.5v.75c1.12-1.43,2.32-2.46,3.62-3.14,1.32-.65,2.82-.99,4.53-.99s3.13.36,4.43,1.05c1.3.69,2.25,1.69,2.9,2.98.43.75.69,1.57.81,2.44.12.85.18,1.96.18,3.31v11.37c0,1.23-.3,2.16-.87,2.78-.57.64-1.32.95-2.24.95s-1.68-.32-2.27-.97c-.59-.64-.87-1.57-.87-2.76v-10.18c0-2.02-.29-3.57-.85-4.64-.57-1.07-1.73-1.61-3.43-1.61-1.12,0-2.13.34-3.05.97-.91.66-1.6,1.55-2.03,2.7-.3.91-.45,2.6-.45,5.12v7.64c0,1.25-.3,2.16-.89,2.8-.59.61-1.34.93-2.28.93s-1.65-.32-2.23-.97c-.59-.64-.87-1.57-.87-2.76v-17.68c0-1.17.26-2.04.79-2.6.51-.57,1.22-.87,2.13-.87.55,0,1.03.12,1.48.38.45.26.81.63,1.08,1.15.26.51.39,1.13.39,1.84"/><path id="path26" class="cls-1" d="M13.09.94c4.23-1.49,9.04-1.41,12.66,1.64.67.61,1.44,1.39,1.75,2.3.37,1.15-1.28-.12-1.5-.28-1.18-.75-2.36-1.39-3.68-1.83-7.11-2.14-13.84,1.73-18.02,7.74-1.75,2.66-2.89,5.45-3.82,8.53-.1.34-.18.78-.37,1.07-.18.34-.08-.91-.08-.95.14-1.27.41-2.5.73-3.73C2.69,8.9,6.95,3.44,13.09.94"/><path id="path28" class="cls-1" d="M18.6,17.19c-2.54,1.27-5.65.28-6.93-2.2-1.3-2.48-.28-5.51,2.26-6.76,2.54-1.27,5.65-.28,6.93,2.2,1.3,2.48.28,5.51-2.26,6.76"/></g></g></svg>