<?xml version="1.0" encoding="UTF-8"?><svg id="Layer_1" xmlns="http://www.w3.org/2000/svg" viewBox="0 0 196.5 40"><defs><style>.cls-1{fill:#7b207f;}</style></defs><path class="cls-1" d="M15.36,32.15c-.24,0-.47-.1-.64-.28l-7.61-8.26v7.67c0,.48-.39.87-.87.87H.86c-.48,0-.86-.39-.86-.87V1.53c0-.48.39-.87.86-.87h5.39c.48,0,.87.39.87.87v14.86l6.42-7.16c.16-.18.4-.29.64-.29h6.77c.34,0,.65.2.79.52.14.31.08.68-.15.93l-8.72,9.7,9.81,10.6c.24.25.3.62.16.93-.14.32-.45.52-.79.52h-6.69Z"/><path class="cls-1" d="M48,32.15c-.48,0-.87-.39-.87-.87V9.82c0-.48.39-.87.87-.87h4.62c.48,0,.86.39.86.87v.05c.21-.19.42-.35.65-.5.97-.64,2.05-.97,3.2-.97.82,0,1.69.22,2.57.64.4.19.59.66.44,1.08l-1.68,4.64c-.08.23-.27.42-.49.51-.1.04-.21.06-.32.06-.14,0-.27-.03-.39-.09-.66-.33-1.02-.38-1.17-.38-.18,0-.73,0-1.34,1.1-.34.61-.75,2.08-.75,5.61l.02,1.03v8.7c0,.48-.39.87-.87.87h-5.35Z"/><path class="cls-1" d="M62.92,8.95h5.38c.48,0,.87.39.87.87v21.47c0,.48-.39.86-.86.86h-5.39c-.48,0-.87-.39-.87-.87V9.82c0-.48.39-.87.87-.87Z"/><path class="cls-1" d="M75.66,40c-.3,0-.57-.15-.73-.4-.16-.25-.18-.56-.06-.83l4.25-9.11-8.02-19.51c-.11-.27-.08-.57.08-.82.16-.24.43-.38.72-.38h5.5c.35,0,.67.21.8.54l4.81,11.62,5.32-11.65c.14-.31.45-.51.79-.51h5.52c.3,0,.57.15.73.4.16.25.18.56.06.83l-13.44,29.32c-.14.31-.45.5-.79.5h-5.56Z"/><path class="cls-1" d="M120.8,32.15c-.48,0-.87-.39-.87-.87V9.82c0-.48.39-.87.87-.87h4.62c.48,0,.87.39.87.87v.05c.2-.19.42-.35.65-.5.97-.64,2.05-.97,3.2-.97.82,0,1.69.22,2.57.64.4.19.59.66.44,1.08l-1.68,4.64c-.08.23-.27.42-.49.51-.1.04-.22.06-.32.06-.13,0-.27-.03-.39-.09-.67-.33-1.02-.38-1.17-.38-.18,0-.74,0-1.35,1.1-.34.61-.75,2.08-.75,5.61l.02,1.03v8.7c0,.48-.39.87-.87.87h-5.35Z"/><path class="cls-1" d="M65.61,7.91c-1.09,0-2.03-.39-2.8-1.16-.77-.77-1.16-1.71-1.16-2.8s.39-2.03,1.16-2.8c.77-.76,1.71-1.15,2.8-1.15s2.03.39,2.8,1.15c.77.77,1.16,1.7,1.16,2.8s-.39,2.03-1.16,2.8c-.77.77-1.71,1.16-2.8,1.16h0Z"/><path class="cls-1" d="M106.2,32.7c-3.59,0-6.56-1.16-8.84-3.44-2.28-2.28-3.43-5.17-3.43-8.59s1.15-6.44,3.41-8.76c2.27-2.33,5.15-3.51,8.56-3.51,3.6,0,6.59,1.18,8.86,3.5,2.27,2.32,3.43,5.41,3.43,9.18l-.02,1.05c-.01.47-.39.85-.87.85h-16.19c.3.85.77,1.54,1.45,2.11.93.78,2.11,1.15,3.6,1.15,1.79,0,3.29-.61,4.58-1.86.16-.16.39-.25.6-.25.13,0,.25.03.37.08l4.54,2.13c.23.11.4.31.47.56.07.25.02.51-.13.72-1.21,1.72-2.69,3.01-4.39,3.84-1.69.82-3.71,1.24-6,1.24h0ZM110.6,18.11c-.34-.85-.79-1.59-1.36-2.22-.96-1.07-2.06-1.59-3.35-1.59-1.4,0-2.6.59-3.65,1.8-.39.44-.76,1.11-1.12,2.01h9.48Z"/><path class="cls-1" d="M153.62,32.15c-.48,0-.86-.39-.86-.87v-9.4c0-3.08-.17-4.35-.32-4.88-.18-.66-.47-1.14-.89-1.46-.42-.32-.94-.48-1.59-.48-.87,0-1.59.28-2.21.86-.65.61-1.11,1.48-1.37,2.59-.1.42-.21,1.47-.21,4.16v8.61c0,.48-.39.87-.87.87h-5.38c-.48,0-.87-.39-.87-.87V9.82c0-.48.39-.87.87-.87h5.38c.48,0,.87.39.87.87v.44c.75-.52,1.45-.92,2.12-1.19,1.09-.44,2.23-.67,3.37-.67,2.36,0,4.38.84,6.03,2.48,1.41,1.43,2.12,3.52,2.12,6.22v14.19c0,.48-.39.87-.86.87h-5.33Z"/><path class="cls-1" d="M187.05,32.15c-.48,0-.87-.39-.87-.87V1.53c0-.48.39-.87.87-.87h5.39c.48,0,.87.39.87.87v7.43h2.33c.48,0,.87.39.87.87v4.08c0,.48-.39.87-.87.87h-2.33v16.51c0,.48-.39.87-.87.87h-5.39Z"/><path class="cls-1" d="M173.14,32.7c-3.59,0-6.56-1.16-8.84-3.44-2.28-2.28-3.43-5.17-3.43-8.59s1.15-6.45,3.41-8.77c2.27-2.32,5.15-3.51,8.56-3.51,3.61,0,6.59,1.18,8.87,3.51,2.27,2.32,3.42,5.41,3.42,9.18l-.02,1.04c0,.47-.39.85-.87.85h-16.19c.29.84.77,1.54,1.45,2.1.93.78,2.11,1.15,3.6,1.15,1.8,0,3.29-.61,4.59-1.86.16-.16.38-.25.6-.25.13,0,.25.03.37.08l4.54,2.14c.23.1.4.31.47.56.07.25.02.51-.13.72-1.21,1.72-2.69,3.01-4.39,3.84-1.69.82-3.71,1.24-6,1.24h0ZM177.55,18.11c-.34-.85-.79-1.59-1.36-2.23-.96-1.07-2.06-1.59-3.35-1.59-1.41,0-2.6.59-3.65,1.8-.39.44-.76,1.11-1.12,2.01h9.48Z"/><path class="cls-1" d="M133.03,32.7c-1.09,0-2.03-.39-2.8-1.16s-1.16-1.72-1.16-2.8.39-2.03,1.16-2.8c.77-.76,1.71-1.15,2.8-1.15s2.03.39,2.8,1.15c.77.76,1.16,1.71,1.16,2.8s-.39,2.03-1.16,2.8c-.77.77-1.72,1.16-2.8,1.16h0Z"/><path class="cls-1" d="M31.77,32.7c-3.01,0-5.64-1.18-7.83-3.5-2.17-2.31-3.27-5.21-3.27-8.61s1.07-6.46,3.17-8.74c2.12-2.3,4.74-3.45,7.77-3.45,1.4,0,2.74.27,3.97.8.67.29,1.31.65,1.92,1.1v-.48c0-.48.39-.87.87-.87h5.38c.48,0,.87.39.87.87v21.47c0,.48-.39.87-.87.87h-5.38c-.48,0-.87-.39-.87-.87v-.42c-.65.47-1.31.84-1.96,1.11-1.16.48-2.43.73-3.77.73h0ZM32.76,25.83c1.45,0,2.7-.52,3.73-1.54,1.03-1.02,1.55-2.28,1.55-3.73s-.52-2.7-1.55-3.72c-1.03-1.01-2.28-1.53-3.73-1.53s-2.7.52-3.73,1.53c-1.02,1.02-1.55,2.27-1.55,3.72s.52,2.71,1.55,3.73c1.03,1.03,2.28,1.54,3.73,1.54h0Z"/></svg>