<?xml version="1.0" encoding="UTF-8"?>
<svg id="Group_1280" data-name="Group 1280" xmlns="http://www.w3.org/2000/svg" viewBox="0 0 157.85 40">
  <defs>
    <style>
      .cls-1 {
        fill: #0a66c2;
      }
    </style>
  </defs>
  <path id="Path_2514" data-name="Path 2514" class="cls-1" d="M0,5.92h6.17v22.47h11.42v5.69H0V5.92Z"/>
  <path id="Path_2515" data-name="Path 2515" class="cls-1" d="M20.32,14.99h5.93v19.09h-5.93V14.99ZM23.28,5.5c1.9,0,3.44,1.54,3.44,3.44s-1.54,3.44-3.44,3.44c-1.9,0-3.44-1.54-3.44-3.44s1.54-3.44,3.44-3.44h0"/>
  <path id="Path_2516" data-name="Path 2516" class="cls-1" d="M51.04,5.91h5.93v16.83l6.72-7.77h7.27l-7.78,8.84,7.62,10.27h-7.45l-6.29-9.43h-.08v9.43h-5.93V5.91Z"/>
  <path id="Path_2517" data-name="Path 2517" class="cls-1" d="M29.53,14.99h5.69v2.61h.08c1.16-1.98,3.32-3.17,5.61-3.08,6.01,0,7.12,3.95,7.12,9.09v10.47h-5.93v-9.28c0-2.22-.04-5.06-3.09-5.06s-3.56,2.41-3.56,4.9v9.44h-5.93V14.99Z"/>
  <path id="Path_2518" data-name="Path 2518" class="cls-1" d="M83.43,22.31c.05-1.96-1.51-3.59-3.47-3.64-.06,0-.11,0-.17,0-2.15-.13-4.02,1.48-4.19,3.64h7.83ZM88.45,30.77c-1.99,2.42-4.97,3.81-8.11,3.8-5.93,0-10.67-3.96-10.67-10.08s4.74-10.08,10.67-10.08c5.54,0,9.01,3.95,9.01,10.08v1.86h-13.76c.35,2.18,2.26,3.76,4.47,3.72,1.71-.01,3.31-.89,4.23-2.33l4.15,3.04Z"/>
  <path id="Path_2519" data-name="Path 2519" class="cls-1" d="M101.72,19.6c-2.96,0-4.74,1.98-4.74,4.86s1.78,4.86,4.74,4.86,4.75-1.98,4.75-4.86-1.78-4.86-4.75-4.86M111.92,34.07h-5.46v-2.53h-.08c-1.39,1.87-3.57,2.98-5.89,3.01-5.69,0-9.45-4.11-9.45-9.92,0-5.34,3.32-10.24,8.78-10.24,2.45,0,4.74.67,6.09,2.53h.08V5.91h5.93v28.16Z"/>
  <path id="Path_2520" data-name="Path 2520" class="cls-1" d="M151.93,34.08h-5.93v-9.28c0-2.21-.04-5.06-3.08-5.06s-3.56,2.41-3.56,4.9v9.44h-5.93V14.99h5.69v2.61h.08c1.16-1.98,3.32-3.17,5.61-3.08,6.01,0,7.11,3.95,7.11,9.09v10.47ZM126.75,12.39c-1.9,0-3.44-1.54-3.44-3.44s1.54-3.44,3.44-3.44c1.9,0,3.44,1.54,3.44,3.44s-1.54,3.44-3.44,3.44h0M129.71,34.08h-5.93V14.99h5.93v19.09ZM154.88,0h-34.09c-1.61-.02-2.93,1.27-2.95,2.88v34.23c.02,1.61,1.34,2.9,2.95,2.89h34.09c1.61.02,2.94-1.27,2.96-2.89V2.88c-.02-1.61-1.35-2.9-2.96-2.88"/>
</svg>