<?xml version="1.0" encoding="UTF-8"?><svg id="Camada_1" xmlns="http://www.w3.org/2000/svg" viewBox="0 0 215.3 40"><defs><style>.cls-1{fill:#706f6f;}.cls-2{fill:#134395;}</style></defs><path class="cls-2" d="M44.28,3.68c0-1.58-1.26-2.83-2.87-2.83s-2.83,1.25-2.83,2.83,1.22,2.87,2.83,2.87,2.87-1.26,2.87-2.87M46.85,29.55c-2.53,0-3.18-.76-3.18-3.71v-15.97l-7.95,1.08v1.17h.11c1.54,0,3.18.26,3.18,3.39v10.31c0,2.68-.56,3.55-2.56,3.68h-.02c-3.05,0-3.62-.74-3.62-4.08V6.58c0-3.34.57-3.97,3.62-3.97h.11v-1.31h-9.84l-8.52,23.87L9.78,1.36l-.02-.07H0v1.31h.11c3.04,0,3.62.63,3.62,3.97v18.87c0,3.34-.58,3.97-3.62,3.97H0v1.31h10.44v-1.31h-.11c-3.08,0-3.61-.59-3.61-3.97V5.16l9.09,25.5.03.07h3.23L28.18,5.16v20.28c0,3.34-.58,3.97-3.63,3.97h-.11v1.31h22.52v-1.18h-.11ZM62.07,14.52c0-2.86-3.75-4.63-7.22-4.63-5.76,0-9.06,3.54-9.06,9.72,0,7.57,3.61,11.57,10.42,11.57,3,0,4.84-.66,5.67-1.06l.06-.03v-1.8l-.15.04c-.55.16-2.22.66-3.87.66-5.26,0-7.13-5.32-7.13-10.29s1.21-7.09,3.71-7.09c.85,0,1.58.11,2,1.37.06.17.1.45.14.78.16,1.22.42,3.26,2.64,3.26,1.34,0,2.79-.78,2.79-2.49M87.28,29.55c-2.53,0-3.18-.76-3.18-3.71v-10c0-3.09-.66-5.95-5.47-5.95-4.1,0-6.18,3.39-7.13,5.07V0l-7.94,1.08v1.17h.11c1.65,0,3.18.42,3.18,3.4v20.18c0,2.95-.66,3.71-3.18,3.71h-.11v1.18h11.23v-1.18h-.11c-2.53,0-3.18-.76-3.18-3.71v-5.83c0-2.79,2.84-7.22,5.2-7.22,2.15,0,2.74,1.42,2.74,6.61v6.45c0,2.95-.65,3.71-3.18,3.71h-.11v1.18h11.23v-1.18h-.11ZM98.97,23.56c0,3.06-1.52,4.89-4.06,4.89-1.62,0-2.65-1.18-2.65-3.01,0-2.68,2.31-4.18,6.71-4.32v2.43h0ZM106.88,29.16c-.47.15-.94.3-1.4.3-1.37,0-1.86-.93-1.86-3.53v-8.73c0-5.33-2.01-7.31-7.39-7.31-4.05,0-8.15,1.59-8.15,4.63,0,1.61,1.36,2.35,2.61,2.35,2.04,0,2.34-1.35,2.64-2.64.3-1.35.59-2.63,2.72-2.63,2.92,0,2.92,3.24,2.92,5.6v2.09c-2.97.14-11.72.6-11.72,6.77,0,2.82,2.63,5.11,5.86,5.11s5.06-1.89,5.95-2.86c.33,1.42.96,2.86,3.53,2.86,1.83,0,3.09-.29,4.65-.79l.07-.03v-1.32l-.15.04c-.09.03-.18.06-.28.09M110.52,16.39c.03-1.72.92-4.79,4.1-4.79,2.47,0,3.64,1.52,3.66,4.79h-7.76ZM110.52,18.41h12.41v-.11c0-5.57-2.74-8.4-8.14-8.4-6.08,0-9.28,3.43-9.28,9.94,0,7.21,3.96,11.35,10.86,11.35,2.99,0,5.33-.86,6.1-1.15l.07-.03v-1.81l-.14.05c-1.36.5-2.67.74-4,.74-5.77,0-7.85-5.44-7.88-10.57M135.41,30.73v-1.18h-.11c-2.53,0-3.17-.76-3.17-3.71V0l-7.95,1.08v1.17h.11c1.54,0,3.18.26,3.18,3.4v20.18c0,2.95-.65,3.71-3.18,3.71h-.11v1.18h11.23Z"/><path class="cls-1" d="M156.39,9.43c0,5.66-3.31,6.12-7.31,6.12h-1.42V6.58c0-2.62.37-3.05,2.57-3.05,3.91,0,6.16.97,6.16,5.9M161.61,9.43c0-5.32-3.53-8.14-10.2-8.14h-12.53v1.31h.11c3.04,0,3.62.63,3.62,3.97v18.87c0,3.35-.58,3.98-3.62,3.98h-.11v1.31h12.51v-1.31h-.11c-3.05,0-3.62-.63-3.62-3.98v-7.66h1.52c4.34,0,12.44,0,12.44-8.36M191.56,17.2c0,1.99-.46,5.33-3.49,5.33-2.48,0-3.58-1.64-3.58-5.33,0-2.56.62-5.6,3.58-5.6s3.49,3.5,3.49,5.6M183.13,31.26h8.41c.9,0,3.84.16,3.84,2.35,0,2.02-3.12,4.37-7.13,4.37s-5.9-2.63-5.9-4.41c0-.8.34-1.49.79-2.3M173.08,23.56c0,3.06-1.52,4.89-4.05,4.89-1.62,0-2.65-1.18-2.65-3.01,0-2.68,2.32-4.19,6.71-4.32v2.43ZM200.2,8.86c0-1.41-1.09-2.52-2.47-2.52-2.61,0-4.04,2.87-4.89,4.58l-.08.16c-1.26-.63-2.71-1.19-4.69-1.19-5.13,0-8.31,2.8-8.31,7.31,0,3.43,1.79,4.79,3.02,5.69-.09.12-.21.27-.35.42-.84,1.02-2.24,2.71-2.24,4.6,0,.57.15,1.02.36,1.39-.32.09-.64.17-.95.17-1.38,0-1.87-.93-1.87-3.53v-8.73c0-5.33-2.01-7.31-7.39-7.31-4.05,0-8.14,1.59-8.14,4.62,0,1.62,1.35,2.36,2.61,2.36,2.04,0,2.34-1.34,2.63-2.64.31-1.35.6-2.63,2.72-2.63,2.91,0,2.91,3.24,2.91,5.6v2.08c-2.95.15-11.71.61-11.71,6.78,0,2.82,2.63,5.11,5.85,5.11s5.06-1.89,5.96-2.86c.33,1.42.96,2.86,3.53,2.86,1.82,0,3.09-.29,4.64-.79l.06-.03s.02.03.03.03c.04.03.07.07.11.11l-.06.05c-1.06.88-2.65,2.19-2.65,4.17s2.5,5.29,9.19,5.29,11.35-4,11.35-7.7c0-4.63-4.22-5.33-6.74-5.33h-6.84c-1.53,0-2.22-.47-2.22-1.52,0-.68.44-1.37.8-1.84.76.28,1.79.64,3.69.64,5,0,8.23-2.77,8.23-7.04,0-2.87-1.17-4.28-2.34-5.25l.04-.07c.33-.63.74-1.4,1.45-1.4.2,0,.38.12.6.29.05.04.11.08.16.13.4.3.82.51,1.52.51,1.41,0,2.47-1.09,2.47-2.53M210.64,16.39h-7.76c.04-1.72.93-4.79,4.1-4.79,2.47,0,3.64,1.52,3.66,4.79M215.29,18.4v-.11c0-5.58-2.74-8.41-8.14-8.41-6.07,0-9.28,3.44-9.28,9.94,0,7.21,3.96,11.34,10.86,11.34,2.98,0,5.33-.86,6.09-1.15l.07-.03v-1.81l-.14.06c-1.35.5-2.65.74-4,.74-5.77,0-7.85-5.44-7.87-10.58h12.42,0Z"/></svg>