<?xml version="1.0" encoding="UTF-8"?><svg id="m-logo-wordmark" xmlns="http://www.w3.org/2000/svg" viewBox="0 0 245.52 40"><defs><style>.cls-1{fill:#00b6b4;}.cls-1,.cls-2{fill-rule:evenodd;}.cls-2{fill:#6e46ae;}</style></defs><path id="path2" class="cls-2" d="M232.45,23.38c1.82-.67,8.01-3.43,8.01-11.3,0-5.69-4.48-12.07-14.15-12.07h-12.52v40h8.62v-15.8h.44l12.36,15.8h10.3l-13.06-16.62h0ZM227.21,16.55h-5.15v-8.28h5.15c2.72,0,4.51,1.81,4.51,4.14,0,2.03-1.51,4.14-4.51,4.14Z"/><polygon id="polygon4" class="cls-2" points="193.79 32.41 193.79 26.9 202.76 26.9 202.76 20 193.79 20 193.79 14.48 205.51 14.48 205.51 6.9 186.2 6.9 186.2 40 205.51 40 205.51 32.41 193.79 32.41"/><polygon id="polygon6" class="cls-2" points="170.34 40 170.34 14.48 177.93 14.48 177.93 6.9 154.48 6.9 154.48 14.48 162.07 14.48 162.04 40 170.34 40"/><path id="path8" class="cls-2" d="M136.15,40c-7.48,0-11.36-4.12-12.01-4.75l4.2-5.85c.66.57,3.63,3.16,7.56,3.16,2.67,0,3.44-1.26,3.44-2.26s-.8-1.97-3.61-3l-2.48-.91c-4.57-1.67-7.47-4.8-7.47-9.46,0-5.7,4.65-10.03,11.25-10.03,5.95,0,9.28,2.81,9.65,3.13l-3.93,6.03c-.8-.54-3.03-1.73-5.49-1.73-2.3,0-3.35.97-3.35,2.12,0,1.51,1.36,2.15,3.79,3.04l2.24.82c4.7,1.72,7.65,5.26,7.65,9.5,0,5.81-4.67,10.2-11.44,10.2"/><polygon id="polygon10" class="cls-2" points="115.86 6.9 107.58 6.9 107.58 23.45 88.27 6.9 88.27 40 96.55 40 96.55 24.14 115.86 40 115.86 6.9"/><path id="path12" class="cls-1" d="M63.45,6.9c-9.25,0-16.55,7.41-16.55,16.55s7.3,16.55,16.55,16.55,16.55-7.41,16.55-16.55-7.3-16.55-16.55-16.55M63.45,32.25c-4.88,0-8.63-3.94-8.63-8.8s3.75-8.8,8.63-8.8,8.63,3.94,8.63,8.8-3.75,8.8-8.63,8.8"/><polygon id="polygon14" class="cls-2" points="8.59 40 8.59 19.86 19.31 30.19 30.03 19.86 30.03 40 38.62 40 38.62 0 19.31 18.59 0 0 0 40 8.59 40"/></svg>