<?xml version="1.0" encoding="UTF-8"?><svg id="Layer_1" xmlns="http://www.w3.org/2000/svg" viewBox="0 0 267.07 40"><defs><style>.cls-1{fill:#007dc5;}</style></defs><path class="cls-1" d="M20.76,39.28h5.91v-14.93c0-.8-.32-1.6-.88-2.08l-8.78-8.78c-.56-.56-1.28-.88-2.08-.88H0v5.91h16.29c2.48,0,4.47,2,4.47,4.47v16.29Z"/><path class="cls-1" d="M35.53,39.28h-5.91v-14.93c0-.8.32-1.6.88-2.08l8.78-8.78c.56-.56,1.28-.88,2.08-.88h14.93v5.91h-16.29c-2.48,0-4.47,2-4.47,4.47v16.29Z"/><path class="cls-1" d="M83.11,12.53h4.55v4.15h.08c1.28-2.79,4.15-4.79,6.95-4.79,1.44,0,2.24.16,3.27.4v4.39c-.88-.4-1.92-.48-2.71-.48-4.39,0-7.27,4.15-7.27,10.94v12.14h-4.87s0-26.75,0-26.75Z"/><path class="cls-1" d="M233.53,28.9c0,3.99-2.55,7.11-7.43,7.11-2.24,0-4.95-1.52-4.95-4.39,0-4.71,6.55-5.19,9.26-5.19,1.04,0,2.08.08,3.11.08v2.4ZM219.16,18.6c2-1.68,4.95-2.79,7.74-2.79,4.95,0,6.55,2.4,6.55,7.03-1.92-.08-3.27-.08-5.19-.08-5.11,0-12.38,2.08-12.38,8.78,0,5.83,4.07,8.38,9.82,8.38,4.47,0,7.11-2.48,8.22-4.07h.08v3.43h4.39v-16.37c0-7.27-3.03-11.02-10.7-11.02-3.43,0-6.31,1.04-8.78,2.48l.24,4.23Z"/><path class="cls-1" d="M114.73,28.9c0,3.99-2.55,7.11-7.43,7.11-2.24,0-4.95-1.52-4.95-4.39,0-4.71,6.55-5.19,9.26-5.19,1.04,0,2.08.08,3.11.08v2.4ZM100.36,18.6c2-1.68,4.95-2.79,7.74-2.79,4.95,0,6.55,2.4,6.55,7.03-1.92-.08-3.27-.08-5.19-.08-5.11,0-12.38,2.08-12.38,8.78,0,5.83,4.07,8.38,9.82,8.38,4.47,0,7.11-2.48,8.22-4.07h.08v3.43h4.39v-16.37c0-7.27-3.03-11.02-10.7-11.02-3.43,0-6.31,1.04-8.78,2.48l.24,4.23Z"/><path class="cls-1" d="M123.59,12.53h4.71v4.23h.08c1.44-3.03,5.03-4.87,8.78-4.87,6.95,0,9.98,4.23,9.98,11.42v15.89h-4.87v-13.81c0-6.23-1.36-9.26-5.67-9.58-5.59,0-8.14,4.55-8.14,11.02v12.38h-4.87V12.53h0Z"/><path class="cls-1" d="M179.16,34.09c1.92,1.28,4.71,1.92,6.15,1.92,2.24,0,5.03-.96,5.03-3.83,0-4.87-11.58-4.47-11.58-11.98,0-5.59,4.15-8.22,9.42-8.22,2.32,0,4.15.48,6.15,1.04l-.4,4.23c-1.12-.72-3.99-1.36-5.19-1.36-2.48,0-4.71,1.04-4.71,3.27,0,5.51,11.58,3.91,11.58,12.46,0,5.75-4.55,8.3-9.34,8.3-2.48,0-5.11-.24-7.35-1.44l.24-4.39Z"/><path class="cls-1" d="M214.29,16.53h-7.11v14.69c0,3.11,1.92,4.79,4.15,4.79,1.52,0,2.63-.48,3.35-.96v4.15c-1.12.32-2.63.72-4.15.72-5.03,0-8.22-2.4-8.22-7.74v-15.65h-5.99v-3.91h5.99v-6.23l4.87-1.6v7.74h7.11v3.99Z"/><path class="cls-1" d="M246.95,25.79c-.08-4.87,2-9.98,7.35-9.98s7.9,5.11,7.9,10.14c0,4.47-2.32,9.98-7.82,9.98-5.35.08-7.5-5.91-7.43-10.14ZM262.36,39.28h4.71V0h-4.87v16.21h-.08c-1.52-2.48-4.15-4.23-8.86-4.23-7.74,0-11.5,6.31-11.5,13.49s3.43,14.53,11.5,14.53c4.79,0,7.82-2.4,9.1-4.39h.08v3.67h-.08Z"/><path class="cls-1" d="M155.77,25.79c-.08-4.87,2-9.98,7.35-9.98s7.9,5.11,7.9,10.14c0,4.47-2.32,9.98-7.82,9.98-5.35.08-7.5-5.91-7.43-10.14ZM171.18,39.28h4.71V0h-4.87v16.21h-.16c-1.52-2.48-4.15-4.23-8.86-4.23-7.74,0-11.5,6.31-11.5,13.49s3.43,14.53,11.5,14.53c4.79,0,7.82-2.4,9.1-4.39h.08v3.67Z"/></svg>