<?xml version="1.0" encoding="UTF-8"?><svg id="katman_1" xmlns="http://www.w3.org/2000/svg" viewBox="0 0 95.74 40"><defs><style>.cls-1{fill:#f03e3e;}.cls-1,.cls-2{fill-rule:evenodd;}</style></defs><g id="Current"><g id="_04-_-15---Branding"><g id="Isotype-_-V1"><g id="Isotype"><path id="Combined-Shape" class="cls-2" d="M14.65,20.54c-.58,3.78-1.14,7.57-1.74,11.35-.37,2.33-.75,4.66-1.22,6.97-.08.37-.6.86-.98.93-1,.18-2.03.15-3.04.21-.62.03-.97-.23-1.1-.86-.6-2.79-1.26-5.57-1.84-8.36-1.17-5.65-2.31-11.31-3.46-16.96C.84,11.77.44,9.72.03,7.68c-.11-.56.1-1.02.65-1.05,1.56-.09,3.13-.14,4.69-.08.69.03.82.74.9,1.33.49,3.57.94,7.15,1.48,10.72.38,2.47.89,4.91,1.48,7.37.22-1.45.43-2.9.65-4.35.47-3.13.97-6.26,1.39-9.39.18-1.32.2-2.66.3-3.99.07-.99.37-1.4,1.33-1.48,1.12-.08,2.25-.05,3.37-.01.75.02,1.03.59,1.14,1.22.44,2.46.89,4.91,1.25,7.38.5,3.37.93,6.76,1.4,10.14.03.18.09.35.28.54.21-1.08.47-2.15.62-3.24.51-3.88.99-7.76,1.47-11.65.12-.99.2-1.99.35-2.98.17-1.12.66-1.54,1.77-1.54,1.07,0,2.15.02,3.22.03,1.09,0,1.37.35,1.16,1.41-.4,1.96-.82,3.91-1.18,5.87-1.26,6.85-2.51,13.7-3.75,20.56-.26,1.42-.48,2.84-.72,4.26-.11.64-.48.99-1.11,1.02-.99.06-1.98.12-2.97.14-1.09.02-1.46-.35-1.62-1.46-.41-2.83-.81-5.65-1.22-8.48-.43-2.94-.88-5.87-1.33-8.81-.03-.21-.1-.42-.14-.63-.08,0-.15,0-.23,0ZM45.39,20.78c-.36,2.15-.71,4.31-1.08,6.46-.37,2.16-.78,4.32-1.14,6.48-.26,1.56-.47,3.13-.68,4.7-.12.92-.48,1.27-1.4,1.25-.99-.01-1.99.01-2.97-.1-.36-.04-.89-.39-.97-.7-.44-1.76-.77-3.56-1.13-5.34-.33-1.63-.68-3.26-1-4.89-.61-3.1-1.18-6.22-1.82-9.31-.54-2.61-1.16-5.2-1.73-7.8-.25-1.16-.5-2.33-.69-3.51-.15-.9.15-1.31,1.03-1.3,1.35.02,2.7.09,4.03.29.32.05.73.66.81,1.07.42,2.21.72,4.44,1.11,6.65.58,3.25,1.2,6.5,1.8,9.74.06.33.11.65.31,1.02.05-.26.1-.52.14-.79.88-5.53,1.77-11.07,2.63-16.61.13-.8.25-1.36,1.31-1.21,1,.14,2.03.04,3.04.04.49,0,.71.23.79.75.8,5.21,1.61,10.43,2.47,15.63.17,1.05.53,2.08.98,3.1.16-.86.36-1.72.48-2.59.72-5.31,1.41-10.62,2.12-15.93.15-1.14.45-1.37,1.56-1.33,1.05.04,2.09.04,3.14.08.91.04,1.17.28,1.03,1.17-.46,2.9-1.01,5.79-1.45,8.7-.77,5.05-1.82,10.04-3,15.02-.51,2.18-.71,4.44-1.05,6.66-.19,1.24-.59,1.56-1.81,1.56-.74,0-1.47.04-2.21.08-1.06.06-1.64-.4-1.78-1.39-.58-4.18-1.16-8.36-1.77-12.53-.25-1.73-.58-3.44-.87-5.16l-.24.04Z"/><path id="Fill-35" class="cls-2" d="M68.71,21.26c1.04,0,2.01.12,2.94-.03,1.84-.29,3.44-1.04,3.82-3.11.14-.79.13-1.62.05-2.42-.19-1.77-1.6-3.96-4.02-3.89-.62.02-1.23.07-1.85.06-.52,0-.65.24-.67.72-.07,1.9-.19,3.8-.26,5.7-.04.97,0,1.94,0,2.97M68.61,26c0,2.73-.02,5.36,0,7.99.01,1.57.11,3.14.14,4.7.02.88-.2,1.04-1.1,1.06-1.04.02-2.08.11-3.13.12-1.35.02-1.69-.34-1.67-1.7.01-.92.05-1.85.05-2.77.03-4.51.06-9.03.08-13.54.01-4.79,0-9.59,0-14.38,0-.64.31-.96.91-.95,3.07.03,6.16-.08,9.21.18,5.49.47,8.84,5.51,8.26,9.97-.4,3.11-1.57,5.71-4.07,7.65-.44.34-.47.62-.29,1.12,1.53,4.36,3.03,8.74,4.53,13.11.3.87-.05,1.37-.98,1.4-1.32.04-2.64.03-3.97.04-.73,0-1.11-.35-1.34-1.03-1.31-4.02-2.67-8.03-3.96-12.06-.25-.77-.62-1.04-1.39-.92-.35.05-.72,0-1.29,0"/><path id="Fill-29" class="cls-1" d="M87.01.53c.61-.27,1.24-.48,1.9-.51.61-.03,1.24-.02,1.84.07.52.09,1.4.4,1.86.64,1.27.65,1.5.95,1.94,1.62.48.73.81,1.58.9,1.73.33.86.31,1.61.29,2.44-.03.92-.34,1.79-.75,2.62-.6,1.22-1.49,2.23-2.67,2.9-1.03.57-2.18.72-3.39.59-1.37-.14-2.59-.59-3.69-1.39-.52-.38-.77-.99-1.11-1.52-.59-.9-.91-1.85-1.02-2.91-.08-.81,0-1.58.23-2.44.61-1.77,1.88-3.04,3.68-3.84Z"/></g></g></g></g></svg>