<?xml version="1.0" encoding="UTF-8"?><svg id="katman_1" xmlns="http://www.w3.org/2000/svg" viewBox="0 0 306.03 40"><defs><style>.cls-1{fill:#ea2c00;}</style></defs><path d="M105.04,33.68v5.98h-21.88v-5.98h7.31V5.98h-7.31V0h14.66v33.68h7.22Z"/><path d="M131.24,33.68v5.98h-21.88v-5.98h7.26V5.98h-7.26V0h14.66v33.68h7.22Z"/><path d="M140,39.66v-23.08h-6.97v-5.98h6.97v-2.35c0-5.34,2.78-8.21,8.5-8.21h8.25v5.85h-7.05c-1.8,0-2.52.77-2.52,2.52v2.14h9.57v5.98h-9.49v23.08h-7.26v.04Z"/><path d="M173.89,10.26c-8.85,0-14.83,5.98-14.83,14.87s5.98,14.87,14.83,14.87,14.87-5.94,14.87-14.87-5.98-14.87-14.87-14.87ZM173.89,33.93c-4.44,0-7.35-3.68-7.35-8.85s2.91-8.85,7.35-8.85,7.39,3.68,7.39,8.85-2.91,8.85-7.39,8.85Z"/><path d="M213.33,10.6h7.31v29.06h-7.14v-3.55c-1.84,2.18-4.4,3.89-8.46,3.89-5.9,0-11.24-3.03-11.24-12.99V10.6h7.31v15.81c0,4.83,1.75,7.52,5.77,7.52s6.45-2.95,6.45-8.21v-15.13Z"/><path d="M281.84,0v14.06c-1.84-2.26-4.7-3.85-8.63-3.85-7.65,0-13.55,5.85-13.55,14.83s5.68,14.91,13.42,14.91c4.23,0,7.09-2.01,8.97-4.53v4.19h7.14V0h-7.35ZM274.53,33.93c-4.53,0-7.44-3.63-7.44-8.85s2.91-8.85,7.44-8.85,7.39,3.63,7.39,8.89-2.91,8.8-7.39,8.8Z"/><path d="M9.02,39.66L0,10.6h8.38l5.34,20.9,5.77-20.9h8.42l5.77,20.9,5.34-20.9h8.38l-9.15,29.06h-8.93l-5.64-20.98-5.68,20.98h-8.97Z"/><path class="cls-1" d="M301.15,39.96c2.69,0,4.87-2.18,4.87-4.87s-2.18-4.87-4.87-4.87-4.87,2.18-4.87,4.87,2.18,4.87,4.87,4.87Z"/><path class="cls-1" d="M301.15,20c2.69,0,4.87-2.18,4.87-4.87s-2.18-4.87-4.87-4.87-4.87,2.18-4.87,4.87,2.18,4.87,4.87,4.87Z"/><path d="M78.85,26.79c.13-.9.21-1.97.21-2.65-.09-8.55-5.81-13.93-14.27-13.93s-14.53,5.9-14.53,14.91,5.73,14.83,15.04,14.83c7.52,0,12.44-4.49,13.33-10.17h-7.22c-.73,2.91-3.08,4.49-6.41,4.49-4.19,0-6.97-2.78-7.14-7.18v-.34h20.98v.04ZM64.79,15.81c3.68,0,6.2,2.05,6.84,5.81h-13.55c.51-3.59,3.25-5.81,6.71-5.81Z"/><path d="M235.09,39.66h-7.31V10.6h7.14v3.55c1.84-2.18,4.4-3.89,8.46-3.89,5.9,0,11.24,3.03,11.24,12.99v16.41h-7.31v-15.85c0-4.83-1.75-7.52-5.77-7.52s-6.45,2.95-6.45,8.21v15.17Z"/></svg>