<?xml version="1.0" encoding="UTF-8"?><svg id="svg2" xmlns="http://www.w3.org/2000/svg" viewBox="0 0 182.06 40"><defs><style>.cls-1{fill:#adda1e;fill-rule:evenodd;}.cls-2{fill:#2e3337;}</style></defs><g id="g10"><g id="g12"><path id="path14" class="cls-2" d="M137.6,10.31c0-1.12.9-2.01,2.12-2.01s2.18.9,2.18,2.01-.9,2.01-2.18,2.01-2.12-.93-2.12-2.01"/><path id="path16" class="cls-2" d="M141.26,14.66c.09,0,.17.07.17.17v13.07c0,.09-.07.17-.17.17h-3.02c-.09,0-.17-.07-.17-.17v-13.07c0-.09.07-.17.17-.17h3.02"/><path id="path18" class="cls-2" d="M30.63,24.82l10.4-13.21c.04-.05,0-.13-.07-.13h-10.05c-.09,0-.17-.07-.17-.17v-2.85c0-.09.07-.17.17-.17h14.85c.09,0,.17.07.17.17v2.94s-.02.09-.04.13l-10.49,13.21c-.04.05,0,.13.07.13h10.3c.09,0,.17.07.17.17v2.85c0,.09-.07.17-.17.17h-15.02c-.09,0-.17-.07-.17-.17v-2.94s.02-.09.04-.13"/><path id="path20" class="cls-2" d="M76.85,16.67c2.57,0,4.28-.59,4.28-2.74,0-1.82-1.22-2.62-4.2-2.62h-2.96s-.08.04-.08.08v5.19s.04.08.08.08h2.88ZM70.37,8.46c0-.09.07-.17.17-.17h6.18c5.68,0,7.89,2.07,7.89,5.67s-2.67,5.22-4.44,5.44c-.04,0-.07.05-.04.09l5.04,8.38c.05.08,0,.19-.11.19h-3.9c-.08,0-.15-.04-.18-.11l-4.48-8.2s-.06-.06-.11-.06h-2.41s-.08.04-.08.08v8.13c0,.09-.07.17-.17.17h-3.19c-.09,0-.17-.07-.17-.17V8.46"/><path id="path22" class="cls-2" d="M110.02,18.56c-.06.06-.17.07-.23,0-.35-.35-1.33-1.22-2.63-1.22-1.48,0-3.73.99-3.73,4.02s2.44,4.02,3.83,4.02c1.23,0,2.29-.77,2.58-1.11.06-.08.18-.08.25,0l1.99,2.14c.06.07.06.18,0,.24-.98.9-2.59,1.75-4.71,1.75-3.39,0-7.29-2.21-7.29-7.04s3.64-7.04,7.29-7.04c1.97,0,3.53.78,4.74,1.91.07.06.07.17,0,.24l-2.08,2.08"/><path id="path24" class="cls-2" d="M95.3,20.02s.09-.04.09-.09c0-1.63-1.47-3.1-3.3-3.1s-3.3,1.11-3.55,3.09c0,.05.03.1.08.1h6.68ZM88.62,22.54c-.05,0-.09.04-.09.09.18,1.52,1.84,3.09,3.59,3.09s2.69-.76,3.5-1.7c.06-.06.15-.08.22-.02l2.14,1.62c.08.06.09.17.03.25-1.37,1.56-3.1,2.54-5.55,2.54-3.86,0-7.29-2.62-7.29-7.04s3.18-7.04,7.08-7.04c3.65,0,6.49,3.05,6.49,7.29v.76c0,.09-.07.17-.17.17h-9.95"/><path id="path26" class="cls-2" d="M164.03,20.02s.09-.04.09-.09c0-1.63-1.47-3.1-3.3-3.1s-3.3,1.11-3.55,3.09c0,.05.03.1.08.1h6.68ZM157.35,22.54c-.05,0-.09.04-.09.09.18,1.52,1.84,3.09,3.59,3.09s2.69-.76,3.5-1.7c.06-.06.15-.08.22-.02l2.14,1.62c.08.06.09.17.03.25-1.37,1.56-3.1,2.54-5.55,2.54-3.86,0-7.29-2.62-7.29-7.04s3.18-7.04,7.08-7.04c3.65,0,6.49,3.05,6.49,7.29v.76c0,.09-.07.17-.17.17h-9.95"/><path id="path28" class="cls-2" d="M113.95,14.66h2.63c.08,0,.15.06.16.13l.39,1.99h.06c1.41-2.76,4.75-2.34,5.03-2.29.08.02.13.09.13.25v2.59c0,.1-.08.17-.18.17,0,0-.61-.13-1.18-.13-2.17,0-3.71,1.94-3.86,4.59v5.94c0,.09-.07.17-.17.17h-3.02c-.09,0-.17-.07-.17-.17v-13.07c0-.09.07-.17.17-.17"/><path id="path30" class="cls-2" d="M169.37,14.66h2.63c.08,0,.15.06.16.13l.39,1.99h.06c1.41-2.76,4.75-2.34,5.03-2.29.08.02.13.09.13.25v2.59c0,.1-.08.17-.18.17,0,0-.61-.13-1.18-.13-2.17,0-3.71,1.94-3.86,4.59v5.94c0,.09-.07.17-.17.17h-3.02c-.09,0-.17-.07-.17-.17v-13.07c0-.09.07-.17.17-.17"/><path id="path32" class="cls-2" d="M143.16,17.34v-2.52c0-.09.07-.17.17-.17h2.52s.08-.04.08-.08v-2.44c0-.07.04-.13.11-.16l3.02-1.12c.11-.04.22.04.22.16v3.56s.04.08.08.08h3.44c.09,0,.17.07.17.17v2.52c0,.09-.07.17-.17.17h-3.44s-.08.04-.08.08v5.78c.01,1.16.19,2.18,1.87,2.18.64,0,1.25-.13,1.64-.31.08-.04.17.03.17.11v2.46c0,.08-.05.16-.12.19-.55.23-1.57.39-2.53.39-1.62,0-2.72-.35-3.33-.97-.6-.6-1.05-1.48-1.05-3.78v-6.06s-.04-.08-.08-.08h-2.52c-.09,0-.17-.07-.17-.17"/><path id="path34" class="cls-2" d="M129.66,25.51c-1.34,0-2.46-.83-2.5-2.32v-8.37c0-.1-.08-.17-.17-.17h-3.02c-.09,0-.17.07-.17.17v7.97c0,3.26,2.44,5.61,5.81,5.61h.08c3.38,0,5.81-2.34,5.81-5.61v-7.97c0-.1-.07-.17-.17-.17h-3.02c-.09,0-.17.07-.17.17v8.37c-.04,1.48-1.16,2.32-2.5,2.32h0"/><path id="path36" class="cls-2" d="M61.75,25.39c-2.19,0-3.94-1.49-3.94-4.02s1.74-4.02,3.94-4.02c1.3,0,3.62.88,3.62,4.02s-2.43,4.02-3.62,4.02ZM57.51,26.44c0-.06.07-.08.11-.04.86,1.13,2.61,2,4.52,2,3.25,0,6.48-2.53,6.48-7.04,0-4.76-3.24-7.04-6.62-7.04-2.14,0-3.75,1.05-4.57,2.28-.03.05-.1.03-.11-.02l-.37-1.8c-.01-.07-.08-.13-.16-.13h-2.47c-.09,0-.17.07-.17.17v19.43c0,.09.07.17.17.17h3.02c.09,0,.17-.07.17-.17v-7.83"/><path id="path38" class="cls-2" d="M47.69,10.31c0-1.12.9-2.01,2.12-2.01s2.18.9,2.18,2.01-.89,2.01-2.18,2.01-2.12-.93-2.12-2.01"/><path id="path40" class="cls-2" d="M51.35,14.66c.09,0,.17.07.17.17v13.07c0,.09-.07.17-.17.17h-3.02c-.09,0-.17-.07-.17-.17v-13.07c0-.09.07-.17.17-.17h3.02"/><path id="path42" class="cls-1" d="M21.75,21.36l-1.72-1.31v-6.98c0-.05.03-.1.08-.12l1.51-.51c.2-.05.23.39.23.7v8.17c0,.05-.06.08-.1.05ZM3.29,20.05l-1.72,1.31s-.1,0-.1-.05v-8.17c0-.31.05-.76.23-.7l1.51.51c.05.02.08.06.08.12v6.98ZM21.97,11.01c-.27-.07-.56-.05-.83.04l-1.11.38V.98c0-.54-.44-.98-.98-.98H4.27c-.54,0-.98.44-.98.98v10.45l-1.11-.38c-.28-.09-.56-.11-.83-.04-.41.1-1.34.51-1.34,2.13v8.55c0,.06,0,.12.01.18.11.74.63,1.61,1.74,1.61h3.74c.39.44,1.31,1.2,3.02,1.34h0c.03,1.28.81,2.36,1.91,2.83v2.44s-.04.08-.08.08c-5.22.21-8.56,1.86-9.52,2.41-.59.34-.71,1.02-.71,1.48v1.91c.02.67.59,1.21,1.27,1.19.64-.02,1.17-.54,1.2-1.17.04-.61-.38-1.14-.95-1.27-.04,0-.06-.04-.06-.08v-.69c0-.18.1-.35.26-.43,1.42-.78,5.03-1.18,7.75-1.31.34-.02.67-.01.81,0,.04,0,.07.04.08.08.14,2.21.36,4.07.44,5.24h-.1c-.48,0-.89.55-.89,1.24,0,.69.41,1.24.89,1.24h1.67c.48,0,.89-.55.89-1.24s-.41-1.23-.89-1.23h-.1s.29-3.03.44-5.24c0-.04.03-.07.08-.08.14,0,.47-.02.81,0,2.73.14,6.34.53,7.75,1.31.16.08.26.25.26.43v.69s-.03.07-.06.08c-.57.14-.98.66-.95,1.27.03.63.57,1.15,1.2,1.17.68.02,1.25-.52,1.27-1.19v-1.91c0-.46-.11-1.14-.71-1.48-.96-.55-4.3-2.2-9.52-2.41-.04,0-.08-.04-.08-.08v-2.44c1.1-.47,1.89-1.55,1.91-2.82h0c1.71-.15,2.63-.91,3.02-1.35h3.74c1.11,0,1.64-.87,1.74-1.61,0-.06.01-.12.01-.18v-8.55c0-1.62-.93-2.03-1.34-2.13"/><path id="path44" class="cls-2" d="M178.4,12.73c0,.23.04.44.13.64.09.2.2.38.35.53.15.15.33.27.53.35.2.09.42.13.64.13s.44-.04.64-.13c.2-.09.38-.2.53-.35.15-.15.27-.32.35-.53.09-.2.13-.42.13-.64s-.04-.44-.13-.64c-.09-.2-.2-.38-.35-.53-.15-.15-.32-.27-.53-.35-.2-.09-.42-.13-.64-.13s-.44.04-.64.13c-.2.09-.38.2-.53.35-.15.15-.27.32-.35.53-.09.2-.13.42-.13.64ZM178.05,12.73c0-.28.05-.54.16-.78.11-.24.25-.46.43-.64.18-.18.39-.33.64-.43.24-.11.5-.16.78-.16s.54.05.78.16c.24.11.46.25.64.43.18.18.33.39.43.64.11.24.16.5.16.78s-.05.54-.16.78c-.11.24-.25.46-.43.64-.18.18-.39.33-.64.43-.24.11-.5.16-.78.16s-.54-.05-.78-.16c-.24-.11-.46-.25-.64-.43-.18-.18-.33-.39-.43-.64-.11-.24-.16-.5-.16-.78"/><path id="path46" class="cls-2" d="M180.01,12.54c.3,0,.5-.07.5-.32,0-.21-.14-.3-.49-.3h-.34s0,0,0,0v.6s0,0,0,0h.33ZM179.26,11.59s0-.02.02-.02h.72c.66,0,.91.24.91.66s-.31.6-.51.63c0,0,0,0,0,.01l.58.96s0,.03-.02.03h-.45s-.01,0-.02-.01l-.52-.95s0,0-.01,0h-.28s0,0,0,0v.94s0,.02-.02.02h-.37s-.02,0-.02-.02v-2.25"/></g></g></svg>